<svg width="181" height="121" viewBox="0 0 181 121" fill="none" xmlns="http://www.w3.org/2000/svg">
<path d="M121.265 52.998H49.418V120.772H121.265V52.998Z" fill="#FED766"/>
<path d="M121.265 52.998H49.418V60.828H121.265V52.998Z" fill="#66D7D1"/>
<path d="M74.562 102.763C72.6351 102.793 70.7492 102.205 69.181 101.085L69.705 100.378C73.143 102.919 78.648 102.186 81.725 98.778C83.0948 97.1228 84.0059 95.1369 84.3671 93.019C84.7282 90.9012 84.5268 88.7256 83.783 86.71C80.6121 88.0323 77.1818 88.6157 73.752 88.416C71.212 88.251 67.704 87.532 65.419 85.036C62.851 82.236 63.166 78.3039 65.071 76.3929C67.471 73.9839 71.518 74.6039 74.504 75.9929C78.8216 77.875 82.2989 81.2755 84.277 85.5499C87.3121 84.206 90.0245 82.2283 92.2322 79.7496C94.4399 77.271 96.0918 74.3487 97.077 71.179L97.922 71.423C96.8966 74.721 95.1766 77.7611 92.8778 80.3386C90.5789 82.9162 87.7547 84.9714 84.595 86.366C85.402 88.5373 85.622 90.883 85.2329 93.1665C84.8439 95.45 83.8595 97.5904 82.379 99.3719C81.3806 100.446 80.1707 101.302 78.8253 101.885C77.48 102.469 76.0285 102.768 74.562 102.763ZM69.429 75.641C68.7464 75.6081 68.0642 75.7125 67.4226 75.948C66.7811 76.1835 66.1933 76.5453 65.694 77.012C63.72 78.993 64.307 82.5119 66.068 84.4399C68.156 86.7189 71.431 87.3829 73.81 87.5399C77.1126 87.7315 80.4155 87.1697 83.469 85.897C81.5765 81.8212 78.2557 78.5805 74.135 76.788C72.6642 76.0798 71.0608 75.689 69.429 75.641Z" fill="white"/>
<path d="M180.394 33.111H108.547V120.771H180.394V33.111Z" fill="#FC7753"/>
<path d="M180.394 33.111H108.547V43.239H180.394V33.111Z" fill="#9B7EDE"/>
<path d="M3.62993 22.5261C4.12664 27.7005 5.71526 32.7107 8.29092 37.226C9.18994 38.7834 10.3409 40.181 11.6969 41.362L14.9099 37.7401L13.3489 42.6251C15.8289 44.3521 18.8396 45.1469 21.8489 44.869C22.2915 42.1789 22.1573 39.4255 21.4551 36.7912C20.7528 34.1569 19.4987 31.702 17.7757 29.5892C16.0528 27.4764 13.9004 25.754 11.4613 24.5361C9.02219 23.3182 6.35206 22.6326 3.62793 22.525L3.62993 22.5261Z" fill="#FC7753"/>
<path d="M12.731 13.652L17.642 15.07L12.821 15.725C12.86 16.202 12.911 16.6701 12.979 17.1251C13.4158 20.7675 14.8036 24.2309 17.003 27.1671C18.2239 28.669 19.7329 29.9116 21.4411 30.8218C23.1493 31.732 25.0224 32.2914 26.95 32.467C28.5363 27.0467 27.9794 21.2242 25.3945 16.2028C22.8095 11.1815 18.3942 7.34523 13.061 5.487C12.94 8.02 12.689 10.913 12.731 13.652Z" fill="#9B7EDE"/>
<path d="M31.244 78.537L30.374 78.522C26.984 52.412 19.874 41.2079 12.688 32.9899L13.351 32.4109C24.821 45.5359 28.7 60.6289 30.81 75.2239C32.577 59.2489 29.357 34.988 20.39 18.987L21.157 18.558C30.834 35.827 33.885 62.6161 31.244 78.537Z" fill="black"/>
<path d="M33.6228 70.3199C32.8382 56.2525 36.1782 42.2621 43.2328 30.066L43.9928 30.5081C37.0246 42.5547 33.7256 56.3739 34.5008 70.269L33.6228 70.3199Z" fill="black"/>
<path d="M32.1259 120.771C49.6935 120.771 63.9349 108.34 63.9349 93.006C63.9349 77.6718 49.6935 65.241 32.1259 65.241C14.5583 65.241 0.316895 77.6718 0.316895 93.006C0.316895 108.34 14.5583 120.771 32.1259 120.771Z" fill="#9B7EDE"/>
<path d="M25.387 74.632H38.865V62.502H25.387V74.632Z" fill="#9B7EDE"/>
<path d="M131.835 26.727C128.94 26.7232 126.161 25.5886 124.091 23.5651C122.02 21.5416 120.822 18.7892 120.753 15.8951C120.683 13.0009 121.746 10.194 123.716 8.07281C125.687 5.95165 128.407 4.68413 131.299 4.54058C134.19 4.39704 137.023 5.38891 139.194 7.3045C141.365 9.22008 142.701 11.9079 142.918 14.7947C143.135 17.6816 142.216 20.539 140.356 22.7576C138.496 24.9763 135.843 26.3805 132.963 26.671C132.585 26.709 132.208 26.727 131.835 26.727ZM131.863 5.43499C130.436 5.43307 129.024 5.73065 127.719 6.30853C126.414 6.8864 125.245 7.73167 124.287 8.78973C123.329 9.84778 122.604 11.0951 122.159 12.451C121.713 13.8068 121.557 15.241 121.701 16.6609C121.898 18.6255 122.662 20.4906 123.898 22.0301C125.134 23.5695 126.791 24.7173 128.667 25.3342C130.542 25.951 132.556 26.0105 134.465 25.5054C136.374 25.0003 138.095 23.9524 139.42 22.4886C140.745 21.0248 141.617 19.208 141.931 17.2585C142.244 15.309 141.985 13.3105 141.185 11.5053C140.385 9.70014 139.078 8.16591 137.424 7.08843C135.769 6.01096 133.837 5.43658 131.863 5.43499Z" fill="black"/>
<path d="M133.328 8.71299C133.466 10.0929 134.011 11.4009 134.893 12.4713C135.775 13.5417 136.954 14.3267 138.282 14.7268C139.61 15.1269 141.027 15.1242 142.353 14.7191C143.679 14.314 144.856 13.5246 145.734 12.4509C146.611 11.3772 147.151 10.0673 147.284 8.68687C147.418 7.30641 147.139 5.91739 146.482 4.69553C145.826 3.47368 144.823 2.47376 143.598 1.82236C142.374 1.17097 140.984 0.897347 139.604 1.03599C138.688 1.1279 137.799 1.39937 136.987 1.83494C136.176 2.2705 135.459 2.86167 134.876 3.57456C134.293 4.28745 133.856 5.10818 133.591 5.98985C133.325 6.87151 133.236 7.79681 133.328 8.71299Z" fill="#66D7D1"/>
<path d="M30.93 107.252L30.365 106.747L35.301 82.022L36.12 81.8981L46.799 101.649L46.546 102.278L30.93 107.252ZM35.93 83.389L31.377 106.189L45.777 101.601L35.93 83.389Z" fill="black"/>
<path d="M82.6328 120.771C82.6558 108.983 88.8138 104.101 93.5828 103.245C98.3518 102.389 103.414 104.905 106.447 109.64C111 100.397 117.124 91.75 125.269 88.216C127.352 87.3069 129.596 86.8233 131.869 86.7938C134.142 86.7643 136.397 87.1892 138.504 88.0439C140.61 88.8986 142.524 90.1657 144.133 91.7707C145.743 93.3757 147.015 95.2862 147.876 97.39C150.862 104.39 149.995 112.907 149.047 120.772" fill="white"/>
<path d="M111.498 121.003L110.852 120.403C111.228 119.998 120.116 110.495 126.644 112.33C129.188 113.045 130.997 115.368 132.035 119.244C133.188 116.33 134.664 113.555 136.435 110.969C140.826 104.669 146.201 101.586 151.979 102.033L151.911 102.91C138.69 101.889 132.423 120.717 132.361 120.91L131.511 120.862C130.625 116.468 128.911 113.884 126.411 113.182C120.386 111.484 111.587 120.903 111.498 121.003Z" fill="black"/>
<path d="M171.34 81.5779H122.713V53.2859H165.152V74.992L171.34 81.5779Z" fill="#FED766"/>
<path d="M135.755 67.274C135.755 67.9518 135.554 68.6142 135.177 69.1776C134.8 69.741 134.265 70.1801 133.639 70.4393C133.013 70.6986 132.324 70.7664 131.659 70.6342C130.994 70.5019 130.384 70.1755 129.905 69.6963C129.425 69.2171 129.099 68.6065 128.967 67.9418C128.835 67.2771 128.902 66.5882 129.162 65.962C129.421 65.3359 129.86 64.8006 130.423 64.424C130.987 64.0473 131.649 63.8461 132.327 63.8459C132.777 63.8458 133.223 63.9345 133.639 64.1067C134.055 64.2789 134.433 64.5314 134.751 64.8497C135.069 65.1681 135.322 65.5461 135.494 65.962C135.666 66.378 135.755 66.8238 135.755 67.274Z" fill="white"/>
<path d="M147.38 67.431C147.38 68.1088 147.179 68.7714 146.802 69.335C146.426 69.8985 145.891 70.3378 145.264 70.5972C144.638 70.8565 143.949 70.9245 143.284 70.7922C142.62 70.66 142.009 70.3335 141.53 69.8542C141.05 69.375 140.724 68.7644 140.592 68.0996C140.459 67.4348 140.527 66.7458 140.787 66.1196C141.046 65.4934 141.485 64.9581 142.049 64.5815C142.613 64.205 143.275 64.004 143.953 64.004C144.862 64.0043 145.733 64.3654 146.376 65.0081C147.018 65.6507 147.38 66.5222 147.38 67.431Z" fill="white"/>
<path d="M159.006 67.588C159.006 68.2657 158.805 68.9283 158.428 69.4919C158.052 70.0554 157.517 70.4947 156.891 70.7541C156.264 71.0135 155.575 71.0814 154.911 70.9493C154.246 70.8171 153.635 70.4908 153.156 70.0117C152.677 69.5325 152.35 68.9218 152.218 68.2571C152.085 67.5924 152.153 66.9035 152.412 66.2773C152.672 65.6511 153.111 65.1158 153.674 64.7391C154.238 64.3624 154.9 64.1611 155.578 64.1609C156.487 64.1609 157.359 64.5221 158.001 65.1647C158.644 65.8074 159.006 66.679 159.006 67.588Z" fill="white"/>
<path d="M77 44C89.1503 44 99 34.1503 99 22C99 9.84974 89.1503 0 77 0C64.8497 0 55 9.84974 55 22C55 34.1503 64.8497 44 77 44Z" fill="#66D7D1"/>
<path d="M86.5911 33.178C86.4089 33.178 86.2329 33.1116 86.0961 32.9913C85.9594 32.8709 85.8712 32.7048 85.8481 32.524L85.1981 27.476C85.1823 27.3769 85.1865 27.2756 85.2106 27.1782C85.2347 27.0808 85.278 26.9892 85.3381 26.9088C85.3982 26.8284 85.4739 26.761 85.5605 26.7104C85.6472 26.6598 85.7431 26.6271 85.8427 26.6142C85.9422 26.6014 86.0433 26.6086 86.14 26.6355C86.2367 26.6625 86.327 26.7085 86.4055 26.771C86.4841 26.8335 86.5493 26.911 86.5973 26.9992C86.6453 27.0873 86.6752 27.1842 86.6851 27.284L87.2391 31.584L91.5391 31.03C91.7364 31.0047 91.9357 31.0588 92.0931 31.1804C92.2506 31.302 92.3532 31.4812 92.3786 31.6785C92.4039 31.8758 92.3498 32.0751 92.2282 32.2326C92.1066 32.39 91.9274 32.4927 91.7301 32.518L86.6821 33.168C86.6489 33.1724 86.6155 33.1744 86.5821 33.174L86.5911 33.178Z" fill="white" stroke="white" stroke-width="1.5"/>
<path d="M76.9221 37.25C72.9453 37.2455 69.1326 35.6637 66.3205 32.8516C63.5084 30.0396 61.9266 26.2269 61.9221 22.25C61.9221 18.3 63.6581 14.631 67.2291 11.034C67.3701 10.8969 67.5593 10.8206 67.756 10.8216C67.9527 10.8226 68.1411 10.9009 68.2807 11.0395C68.4202 11.1781 68.4997 11.366 68.502 11.5627C68.5044 11.7594 68.4293 11.9491 68.2931 12.091C65.0151 15.391 63.4221 18.716 63.4221 22.25C63.4257 24.4368 63.9596 26.5902 64.9781 28.5254C65.9965 30.4606 67.4692 32.1199 69.2697 33.361C71.0702 34.6022 73.1448 35.3881 75.3158 35.6514C77.4867 35.9148 79.6891 35.6477 81.7341 34.873C81.8273 34.8315 81.928 34.8095 82.03 34.8082C82.132 34.807 82.2332 34.8266 82.3273 34.8658C82.4215 34.905 82.5067 34.963 82.5777 35.0362C82.6487 35.1095 82.704 35.1964 82.7402 35.2918C82.7765 35.3871 82.7929 35.4889 82.7884 35.5908C82.784 35.6927 82.7588 35.7926 82.7145 35.8845C82.6701 35.9763 82.6074 36.0582 82.5303 36.125C82.4532 36.1918 82.3633 36.2421 82.2661 36.273C80.5588 36.9211 78.7473 37.2516 76.9211 37.248L76.9221 37.25Z" fill="white" stroke="white" stroke-width="1.5"/>
<path d="M86.591 33.178C86.4438 33.1779 86.2998 33.1344 86.177 33.053C86.0543 32.9716 85.9582 32.8558 85.9008 32.7202C85.8434 32.5845 85.8273 32.4349 85.8544 32.2902C85.8814 32.1454 85.9505 32.0118 86.053 31.906C88.993 28.874 90.422 25.715 90.422 22.25C90.4178 18.6709 88.9941 15.2396 86.4633 12.7087C83.9325 10.1779 80.5012 8.75423 76.922 8.75C75.7113 8.81049 74.5147 9.03762 73.366 9.425L73.206 9.471C73.0162 9.52117 72.8143 9.4949 72.6437 9.39786C72.473 9.30081 72.3472 9.14071 72.2933 8.95194C72.2393 8.76317 72.2616 8.56077 72.3552 8.38821C72.4488 8.21565 72.6064 8.08668 72.794 8.029L72.953 7.983C74.2348 7.55266 75.5711 7.30588 76.922 7.25C80.8989 7.2545 84.7116 8.8363 87.5237 11.6484C90.3358 14.4604 91.9175 18.2731 91.922 22.25C91.922 26.125 90.354 29.625 87.13 32.95C87.0602 33.022 86.9765 33.0792 86.8841 33.1182C86.7917 33.1572 86.6924 33.1772 86.592 33.177L86.591 33.178Z" fill="white" stroke="white" stroke-width="1.5"/>
<path d="M68.2052 17.383C68.0178 17.3827 67.8372 17.3122 67.6991 17.1854C67.5611 17.0587 67.4755 16.8848 67.4592 16.698L67.0802 12.375L62.7582 12.754C62.5626 12.7667 62.3697 12.7024 62.2209 12.5746C62.0721 12.4469 61.9793 12.266 61.9623 12.0706C61.9453 11.8753 62.0055 11.681 62.13 11.5295C62.2544 11.378 62.4333 11.2812 62.6282 11.26L67.6982 10.816C67.7963 10.8074 67.8952 10.8181 67.9891 10.8478C68.0831 10.8774 68.1703 10.9252 68.2457 10.9886C68.3211 11.0519 68.3833 11.1295 68.4287 11.2169C68.4741 11.3044 68.5018 11.3999 68.5102 11.498L68.9542 16.568C68.9714 16.7661 68.9092 16.9629 68.7813 17.1152C68.6534 17.2675 68.4703 17.3627 68.2722 17.38C68.2492 17.38 68.2272 17.38 68.2052 17.38V17.383Z" fill="white" stroke="white" stroke-width="1.5"/>
</svg>
